<?xml version="1.0" encoding="utf-8"?>
<!-- Generator: Adobe Illustrator 23.1.0, SVG Export Plug-In . SVG Version: 6.00 Build 0)  -->
<svg version="1.1" id="Layer_1" xmlns="http://www.w3.org/2000/svg" xmlns:xlink="http://www.w3.org/1999/xlink" x="0px" y="0px"
	 viewBox="0 0 326.45 80" style="enable-background:new 0 0 326.45 80;" xml:space="preserve">
<style type="text/css">
	.st0{fill:#FFFFFF;}
</style>
<g>
	<g id="Group_1" transform="translate(494.059 3.611)">
		<path id="Path_1" class="st0" d="M-245.36,62.09l-0.04,8.62c-4.37-0.04-11.97-3.39-16.23-6.66c-4.69,4.76-10.91,7.33-18,7.33
			c-14.38,0-21.7-10.44-21.7-19.81c0-7.68,5.08-15.01,10.71-18.32c-2.4-4.45-3.86-8.62-3.86-12.17c0-7.88,7.29-15.99,16.78-15.99
			c8.58,0,15.36,6.66,16.54,14.26l-9.65,1.81c-0.47-3.86-3.62-6.85-7.21-6.85c-3.66,0-6.62,3.11-6.62,7.13
			c0,7.36,9.85,20.13,20.2,29.23C-254.26,60.6-245.36,62.09-245.36,62.09z M-269.62,57.92c-6.07-5.13-11.53-10.95-16.27-17.33
			c-3.78,2.68-5.99,6.22-5.99,10.36c0,6.03,4.06,10.67,11.74,10.67C-276.01,61.62-272.46,60.32-269.62,57.92L-269.62,57.92z"/>
	</g>
	<g id="Group_3">
		<path id="Path_2" class="st0" d="M107.52,31.5c0-3.1,0-6.49-0.07-9.19h9.78c0.21,1.54,0.34,3.09,0.39,4.65
			c1.24-2.29,4.19-5.49,10.58-5.49c7.32,0,12.08,4.95,12.08,14.11v23.19h-10.1V36.7c0-4.1-1.36-7.07-5.82-7.07
			c-4.29,0-6.74,2.38-6.74,8.82v20.32h-10.09L107.52,31.5z"/>
		<path id="Path_3" class="st0" d="M66.22,40.53c-0.02-2.57,0.46-5.12,1.42-7.5c0.91-2.26,2.24-4.32,3.93-6.06
			c1.71-1.74,3.75-3.12,6.01-4.05c2.44-1,5.06-1.49,7.7-1.46c2.63-0.03,5.24,0.47,7.67,1.46c2.27,0.93,4.33,2.3,6.05,4.05
			c1.7,1.74,3.04,3.8,3.95,6.06c0.96,2.38,1.44,4.93,1.42,7.5c0.02,2.57-0.46,5.12-1.42,7.5c-0.91,2.26-2.25,4.32-3.95,6.06
			c-1.72,1.75-3.78,3.12-6.05,4.05c-2.44,0.99-5.04,1.49-7.67,1.46c-2.64,0.03-5.26-0.47-7.7-1.46c-2.26-0.93-4.3-2.3-6.01-4.05
			c-1.69-1.75-3.02-3.81-3.93-6.06C66.68,45.65,66.2,43.1,66.22,40.53z M75.58,40.53c-0.01,1.37,0.25,2.72,0.78,3.98
			c0.49,1.18,1.21,2.25,2.1,3.16c0.88,0.89,1.93,1.6,3.08,2.08c1.18,0.5,2.45,0.75,3.73,0.74c1.28,0.01,2.54-0.25,3.72-0.74
			c1.16-0.49,2.21-1.2,3.1-2.08c0.91-0.91,1.63-1.98,2.13-3.16c0.53-1.26,0.79-2.61,0.78-3.98c0.01-1.36-0.25-2.72-0.78-3.98
			c-0.5-1.18-1.22-2.26-2.13-3.16c-0.89-0.89-1.94-1.6-3.1-2.08c-1.18-0.5-2.44-0.75-3.72-0.74c-1.28-0.01-2.55,0.25-3.73,0.74
			c-1.16,0.48-2.2,1.19-3.08,2.08c-0.89,0.91-1.61,1.99-2.1,3.16C75.83,37.82,75.57,39.17,75.58,40.53L75.58,40.53z"/>
		<path id="Path_4" class="st0" d="M36.08,7.34V25.3c-1.26-0.97-2.64-1.77-4.1-2.38c-2.44-0.99-5.06-1.49-7.7-1.46
			c-2.63-0.03-5.24,0.47-7.67,1.46c-2.27,0.93-4.33,2.3-6.05,4.05c-1.7,1.74-3.04,3.8-3.95,6.07c-0.96,2.38-1.44,4.93-1.42,7.5
			c-0.02,2.57,0.46,5.12,1.42,7.5c0.91,2.26,2.25,4.32,3.95,6.06c1.72,1.75,3.78,3.12,6.05,4.05c2.44,0.99,5.05,1.49,7.68,1.46
			c2.64,0.03,5.26-0.47,7.7-1.46c1.46-0.61,2.84-1.42,4.1-2.38v2.99h10.1V7.34H36.08z M33.19,44.51c-0.49,1.18-1.21,2.25-2.1,3.16
			c-0.88,0.89-1.93,1.6-3.08,2.08c-1.18,0.5-2.45,0.75-3.73,0.74c-1.28,0.01-2.54-0.25-3.72-0.74c-1.16-0.49-2.21-1.2-3.1-2.08
			c-0.91-0.91-1.63-1.98-2.13-3.16c-0.53-1.26-0.79-2.61-0.78-3.98c-0.01-1.36,0.25-2.72,0.78-3.98c0.5-1.18,1.22-2.26,2.13-3.16
			c0.89-0.89,1.94-1.6,3.1-2.08c1.18-0.5,2.44-0.75,3.72-0.74c1.28-0.01,2.55,0.25,3.73,0.74c1.16,0.48,2.2,1.19,3.08,2.08
			c0.89,0.91,1.61,1.99,2.1,3.16c0.53,1.26,0.79,2.61,0.78,3.98C33.98,41.9,33.71,43.25,33.19,44.51L33.19,44.51z"/>
		<path id="Path_5" class="st0" d="M163.48,21.46c-2.64-0.03-5.26,0.47-7.7,1.46c-2.26,0.93-4.3,2.3-6.01,4.05
			c-1.69,1.75-3.02,3.81-3.93,6.06c-0.96,2.38-1.44,4.93-1.42,7.5c-0.02,2.57,0.46,5.12,1.42,7.5c0.9,2.26,2.24,4.32,3.93,6.06
			c1.71,1.75,3.75,3.12,6.01,4.05c2.44,1,5.06,1.49,7.7,1.46c2.63,0.03,5.24-0.47,7.67-1.46c2.27-0.93,4.33-2.3,6.05-4.05
			c1.3-1.33,2.38-2.84,3.23-4.49l-8.77-3.65c-0.39,0.62-0.84,1.2-1.36,1.72c-0.89,0.89-1.95,1.6-3.11,2.08
			c-1.18,0.5-2.44,0.75-3.72,0.74c-1.28,0.01-2.55-0.25-3.72-0.74c-1.16-0.48-2.2-1.19-3.09-2.08c-0.89-0.91-1.61-1.99-2.1-3.16
			c-0.24-0.57-0.43-1.17-0.55-1.78h27.6C181.61,42.73,184.57,21.46,163.48,21.46z M156.67,33.39c0.88-0.89,1.93-1.6,3.09-2.09
			c1.18-0.5,2.44-0.75,3.72-0.74c1.28-0.01,2.54,0.25,3.72,0.74c1.16,0.49,2.22,1.19,3.11,2.08c0.84,0.88,1.47,1.95,1.81,3.13
			h-17.53C155.08,35.36,155.79,34.3,156.67,33.39L156.67,33.39z"/>
		<g id="Group_2" transform="translate(122.874 2.236)">
			<rect id="Rectangle_2" x="-71.03" y="20.92" class="st0" width="10.09" height="36.46"/>
			<path id="Path_6" class="st0" d="M-65.99,16.07c2.79,0,5.06-2.26,5.06-5.06c0-2.79-2.26-5.06-5.06-5.06c0,0,0,0,0,0
				c-2.79,0-5.06,2.26-5.06,5.06c0,0,0,0,0,0C-71.05,13.81-68.78,16.07-65.99,16.07C-65.99,16.07-65.99,16.07-65.99,16.07z"/>
		</g>
	</g>
	<g id="Group_6" transform="translate(620.082 37.202)">
		<circle id="Ellipse_1" class="st0" cx="-306.3" cy="11.61" r="4.06"/>
		<g id="Group_5">
			<path id="Path_7" class="st0" d="M-352.28,8.76c-0.39,0.62-0.84,1.2-1.36,1.72c-0.89,0.89-1.95,1.6-3.11,2.08
				c-1.18,0.5-2.44,0.75-3.72,0.74c-1.28,0.01-2.54-0.25-3.72-0.74c-1.16-0.48-2.2-1.19-3.08-2.08c-0.9-0.91-1.61-1.99-2.1-3.16
				c-0.53-1.26-0.79-2.61-0.78-3.98c-0.01-1.37,0.25-2.72,0.78-3.98c0.49-1.18,1.21-2.25,2.1-3.16c0.88-0.89,1.93-1.6,3.08-2.09
				c1.18-0.5,2.44-0.75,3.72-0.74c1.28-0.01,2.54,0.25,3.72,0.74c1.16,0.49,2.22,1.2,3.11,2.08c0.52,0.52,0.97,1.1,1.36,1.72
				l8.77-3.65c-0.84-1.65-1.93-3.17-3.23-4.49c-1.72-1.75-3.78-3.12-6.05-4.05c-2.44-0.99-5.05-1.49-7.68-1.46
				c-2.64-0.03-5.26,0.47-7.7,1.46c-2.26,0.93-4.3,2.3-6.01,4.05c-1.69,1.75-3.02,3.81-3.93,6.06c-0.96,2.38-1.44,4.93-1.42,7.5
				c-0.02,2.57,0.46,5.12,1.42,7.5c0.9,2.26,2.24,4.32,3.93,6.06c1.7,1.75,3.75,3.12,6.01,4.05c2.44,1,5.06,1.49,7.7,1.46
				c2.63,0.03,5.24-0.47,7.68-1.46c2.27-0.92,4.33-2.3,6.05-4.05c1.3-1.33,2.38-2.84,3.23-4.49L-352.28,8.76z"/>
			<g id="Group_4" transform="translate(110.574)">
				<path id="Path_8" class="st0" d="M-448.12-4.09c-0.01-1.57,0.28-3.13,0.87-4.58c0.55-1.38,1.37-2.63,2.4-3.7
					c1.04-1.07,2.29-1.91,3.67-2.47c1.49-0.61,3.09-0.91,4.7-0.89c1.61-0.02,3.2,0.29,4.69,0.89c1.39,0.56,2.65,1.41,3.7,2.47
					c1.04,1.06,1.86,2.32,2.41,3.7c0.58,1.46,0.88,3.01,0.87,4.58c0.01,1.57-0.28,3.13-0.87,4.58c-0.55,1.38-1.37,2.64-2.41,3.7
					c-1.05,1.07-2.31,1.91-3.7,2.47c-1.49,0.61-3.08,0.91-4.69,0.89c-1.61,0.02-3.21-0.28-4.7-0.89c-1.38-0.57-2.63-1.41-3.67-2.47
					c-1.03-1.07-1.85-2.32-2.4-3.7C-447.84-0.96-448.13-2.52-448.12-4.09z M-442.4-4.09c-0.01,0.83,0.15,1.66,0.47,2.43
					c0.3,0.72,0.74,1.38,1.28,1.93c0.54,0.55,1.18,0.98,1.89,1.27c0.72,0.3,1.49,0.46,2.27,0.45c0.78,0,1.55-0.15,2.27-0.45
					c0.71-0.3,1.35-0.73,1.9-1.27c0.55-0.55,0.99-1.21,1.3-1.93c0.32-0.77,0.48-1.6,0.47-2.43c0.01-0.83-0.15-1.66-0.47-2.43
					c-0.3-0.72-0.74-1.38-1.3-1.93c-0.55-0.54-1.19-0.97-1.9-1.27c-0.72-0.3-1.49-0.46-2.27-0.45c-0.78-0.01-1.55,0.15-2.27,0.45
					c-0.71,0.3-1.35,0.73-1.89,1.27c-0.55,0.56-0.98,1.21-1.28,1.93C-442.24-5.75-442.41-4.92-442.4-4.09z"/>
				<rect id="Rectangle_3" x="-447.19" y="10.59" class="st0" width="21.45" height="5.51"/>
			</g>
		</g>
	</g>
</g>
</svg>
