<?xml version="1.0" encoding="utf-8"?>
<!-- Generator: Adobe Illustrator 23.1.0, SVG Export Plug-In . SVG Version: 6.00 Build 0)  -->
<svg version="1.1" id="Layer_1" xmlns="http://www.w3.org/2000/svg" xmlns:xlink="http://www.w3.org/1999/xlink" x="0px" y="0px"
	 viewBox="0 0 42.5 42.5" style="enable-background:new 0 0 42.5 42.5;" xml:space="preserve">
<style type="text/css">
	.st0{fill:#647727;}
	.st1{fill:#FFFFFF;}
</style>
<ellipse id="Ellipse_3" class="st0" cx="21.25" cy="21.25" rx="21.09" ry="21.09"/>
<g id="Group_31" transform="translate(9.602 10.248)">
	<g id="Group_30">
		<path id="Path_32" class="st1" d="M21.32,0.27L0.94,9.15c-0.66,0.29-0.95,1.06-0.66,1.71c0.12,0.27,0.32,0.49,0.58,0.63l4.13,2.13
			l12.32-8.56C17.39,5,17.49,5.02,17.54,5.1c0.02,0.03,0.03,0.06,0.03,0.09L7.26,15.04c-0.26,0.24-0.4,0.58-0.4,0.94v4.56
			c0.01,0.72,0.6,1.29,1.32,1.28c0.44-0.01,0.85-0.23,1.08-0.61l2.5-4.09l5.3,2.73c0.63,0.33,1.41,0.08,1.74-0.55
			c0.05-0.09,0.08-0.19,0.11-0.29L23.1,1.77c0.17-0.7-0.26-1.4-0.96-1.57C21.87,0.13,21.58,0.15,21.32,0.27z"/>
	</g>
</g>
</svg>
