<?xml version="1.0" encoding="utf-8"?>
<!-- Generator: Adobe Illustrator 23.1.0, SVG Export Plug-In . SVG Version: 6.00 Build 0)  -->
<svg version="1.1" id="Layer_1" xmlns="http://www.w3.org/2000/svg" xmlns:xlink="http://www.w3.org/1999/xlink" x="0px" y="0px"
	 viewBox="0 0 42.5 42.5" style="enable-background:new 0 0 42.5 42.5;" xml:space="preserve">
<style type="text/css">
	.st0{fill:#647727;}
	.st1{fill:#FFFFFF;}
</style>
<ellipse id="Ellipse_2" class="st0" cx="21.25" cy="21.25" rx="21.09" ry="21.09"/>
<g id="Group_28" transform="translate(11.092 11.088)">
	<g id="Group_27">
		<g id="Group_26">
			<g id="Group_25">
				<path id="Path_30" class="st1" d="M19.13,14.5l-2.55-1.38c-0.62-0.34-1.1-0.09-1.64,0.64c-1.17,1.62-1.74,1.94-3.18,1.13
					c-2.54-1.65-4.7-3.82-6.36-6.36C4.61,7.1,4.92,6.53,6.54,5.36c0.73-0.54,0.97-1.02,0.64-1.64L5.81,1.18
					C5.25,0.09,4.45-0.03,3.27,0.37c-1.62,0.55-3.19,2.9-3.11,4.01c1.14,8.2,7.59,14.65,15.79,15.79c1.11,0.08,3.44-1.51,3.99-3.13
					C20.34,15.86,20.22,15.06,19.13,14.5z"/>
				<path id="Path_31" class="st1" d="M11.51,4.69c-0.54,0.02-0.95,0.47-0.93,1.01c0.02,0.51,0.43,0.92,0.94,0.93h0.03
					c0.57,0,1.12,0.23,1.53,0.63c0.41,0.41,0.64,0.97,0.63,1.55c0,0.54,0.43,0.98,0.97,0.98h0.01c0.53,0,0.97-0.43,0.97-0.97
					c0.01-1.1-0.42-2.16-1.2-2.94C13.67,5.12,12.61,4.69,11.51,4.69z M17.31,3.02c-1.54-1.54-3.63-2.4-5.8-2.39
					c-0.54,0-0.97,0.44-0.97,0.98c0,0.54,0.44,0.97,0.98,0.97h0.03c3.43-0.01,6.21,2.76,6.22,6.19c0,0.02,0,0.03,0,0.05
					c0,0.54,0.43,0.97,0.97,0.98l0,0c0.54,0,0.97-0.44,0.97-0.97C19.72,6.65,18.86,4.56,17.31,3.02L17.31,3.02z"/>
			</g>
		</g>
	</g>
</g>
</svg>
